<svg preserveAspectRatio="none" id="visual" viewBox="0 0 900 600" width="900" height="600" xmlns="http://www.w3.org/2000/svg" xmlns:xlink="http://www.w3.org/1999/xlink" version="1.1"><rect x="0" y="0" width="900" height="600" fill="#1a1a1b"></rect><path d="M0 273L37.5 267.7C75 262.3 150 251.7 225 265.7C300 279.7 375 318.3 450 311.8C525 305.3 600 253.7 675 235C750 216.3 825 230.7 862.5 237.8L900 245L900 601L862.5 601C825 601 750 601 675 601C600 601 525 601 450 601C375 601 300 601 225 601C150 601 75 601 37.5 601L0 601Z" fill="#fa7268"></path><path d="M0 362L37.5 369.2C75 376.3 150 390.7 225 380C300 369.3 375 333.7 450 327.2C525 320.7 600 343.3 675 355.2C750 367 825 368 862.5 368.5L900 369L900 601L862.5 601C825 601 750 601 675 601C600 601 525 601 450 601C375 601 300 601 225 601C150 601 75 601 37.5 601L0 601Z" fill="#ec6859"></path><path d="M0 422L37.5 426.8C75 431.7 150 441.3 225 444.3C300 447.3 375 443.7 450 435C525 426.3 600 412.7 675 409.2C750 405.7 825 412.3 862.5 415.7L900 419L900 601L862.5 601C825 601 750 601 675 601C600 601 525 601 450 601C375 601 300 601 225 601C150 601 75 601 37.5 601L0 601Z" fill="#dd5f4b"></path><path d="M0 477L37.5 474.2C75 471.3 150 465.7 225 463C300 460.3 375 460.7 450 467.5C525 474.3 600 487.7 675 483C750 478.3 825 455.7 862.5 444.3L900 433L900 601L862.5 601C825 601 750 601 675 601C600 601 525 601 450 601C375 601 300 601 225 601C150 601 75 601 37.5 601L0 601Z" fill="#ce563d"></path><path d="M0 551L37.5 552.2C75 553.3 150 555.7 225 547.7C300 539.7 375 521.3 450 516.8C525 512.3 600 521.7 675 524.8C750 528 825 525 862.5 523.5L900 522L900 601L862.5 601C825 601 750 601 675 601C600 601 525 601 450 601C375 601 300 601 225 601C150 601 75 601 37.5 601L0 601Z" fill="#bf4e30"></path></svg>
